<svg width="1920" height="18" viewBox="0 0 1920 18" fill="none" xmlns="http://www.w3.org/2000/svg">
<g clip-path="url(#clip0)">
<path d="M1910 18L1899.61 0L1920.39 0L1910 18Z" fill="white"/>
<path d="M1890 18L1879.61 0L1900.39 0L1890 18Z" fill="white"/>
<path d="M1870 18L1859.61 0L1880.39 0L1870 18Z" fill="white"/>
<path d="M1850 18L1839.61 0L1860.39 0L1850 18Z" fill="white"/>
<path d="M1830 18L1819.61 0L1840.39 0L1830 18Z" fill="white"/>
<path d="M1810 18L1799.61 0L1820.39 0L1810 18Z" fill="white"/>
<path d="M1790 18L1779.61 0L1800.39 0L1790 18Z" fill="white"/>
<path d="M1770 18L1759.61 0L1780.39 0L1770 18Z" fill="white"/>
<path d="M1750 18L1739.61 0L1760.39 0L1750 18Z" fill="white"/>
<path d="M1730 18L1719.61 0L1740.39 0L1730 18Z" fill="white"/>
<path d="M1710 18L1699.61 0L1720.39 0L1710 18Z" fill="white"/>
<path d="M1690 18L1679.61 0L1700.39 0L1690 18Z" fill="white"/>
<path d="M1670 18L1659.61 0L1680.39 0L1670 18Z" fill="white"/>
<path d="M1650 18L1639.61 0L1660.39 0L1650 18Z" fill="white"/>
<path d="M1630 18L1619.61 0L1640.39 0L1630 18Z" fill="white"/>
<path d="M1610 18L1599.61 0L1620.39 0L1610 18Z" fill="white"/>
<path d="M1590 18L1579.61 0L1600.39 0L1590 18Z" fill="white"/>
<path d="M1570 18L1559.61 0L1580.39 0L1570 18Z" fill="white"/>
<path d="M1550 18L1539.61 0L1560.39 0L1550 18Z" fill="white"/>
<path d="M1530 18L1519.61 0L1540.39 0L1530 18Z" fill="white"/>
<path d="M1510 18L1499.61 0L1520.39 0L1510 18Z" fill="white"/>
<path d="M1490 18L1479.61 0L1500.39 0L1490 18Z" fill="white"/>
<path d="M1470 18L1459.61 0L1480.39 0L1470 18Z" fill="white"/>
<path d="M1450 18L1439.61 0L1460.39 0L1450 18Z" fill="white"/>
<path d="M1430 18L1419.61 0L1440.39 0L1430 18Z" fill="white"/>
<path d="M1410 18L1399.61 0L1420.39 0L1410 18Z" fill="white"/>
<path d="M1390 18L1379.61 0L1400.39 0L1390 18Z" fill="white"/>
<path d="M1370 18L1359.61 0L1380.39 0L1370 18Z" fill="white"/>
<path d="M1350 18L1339.61 0L1360.39 0L1350 18Z" fill="white"/>
<path d="M1330 18L1319.61 0L1340.39 0L1330 18Z" fill="white"/>
<path d="M1310 18L1299.61 0L1320.39 0L1310 18Z" fill="white"/>
<path d="M1290 18L1279.61 0L1300.39 0L1290 18Z" fill="white"/>
<path d="M1270 18L1259.61 0L1280.39 0L1270 18Z" fill="white"/>
<path d="M1250 18L1239.61 0L1260.39 0L1250 18Z" fill="white"/>
<path d="M1230 18L1219.61 0L1240.39 0L1230 18Z" fill="white"/>
<path d="M1210 18L1199.61 0L1220.39 0L1210 18Z" fill="white"/>
<path d="M1190 18L1179.61 0L1200.39 0L1190 18Z" fill="white"/>
<path d="M1170 18L1159.61 0L1180.39 0L1170 18Z" fill="white"/>
<path d="M1150 18L1139.61 0L1160.39 0L1150 18Z" fill="white"/>
<path d="M1130 18L1119.61 0L1140.39 0L1130 18Z" fill="white"/>
<path d="M1110 18L1099.61 0L1120.39 0L1110 18Z" fill="white"/>
<path d="M1090 18L1079.61 0L1100.39 0L1090 18Z" fill="white"/>
<path d="M1070 18L1059.61 0L1080.39 0L1070 18Z" fill="white"/>
<path d="M1050 18L1039.61 0L1060.39 0L1050 18Z" fill="white"/>
<path d="M1030 18L1019.61 0L1040.39 0L1030 18Z" fill="white"/>
<path d="M1010 18L999.608 0L1020.39 0L1010 18Z" fill="white"/>
<path d="M990 18L979.608 0L1000.39 0L990 18Z" fill="white"/>
<path d="M970 18L959.608 0L980.392 0L970 18Z" fill="white"/>
<path d="M950 18L939.608 0L960.392 0L950 18Z" fill="white"/>
<path d="M930 18L919.608 0L940.392 0L930 18Z" fill="white"/>
<path d="M910 18L899.608 0L920.392 0L910 18Z" fill="white"/>
<path d="M890 18L879.608 0L900.392 0L890 18Z" fill="white"/>
<path d="M870 18L859.608 0L880.392 0L870 18Z" fill="white"/>
<path d="M850 18L839.608 0L860.392 0L850 18Z" fill="white"/>
<path d="M830 18L819.608 0L840.392 0L830 18Z" fill="white"/>
<path d="M810 18L799.608 0L820.392 0L810 18Z" fill="white"/>
<path d="M790 18L779.608 0L800.392 0L790 18Z" fill="white"/>
<path d="M770 18L759.608 0L780.392 0L770 18Z" fill="white"/>
<path d="M750 18L739.608 0L760.392 0L750 18Z" fill="white"/>
<path d="M730 18L719.608 0L740.392 0L730 18Z" fill="white"/>
<path d="M710 18L699.608 0L720.392 0L710 18Z" fill="white"/>
<path d="M690 18L679.608 0L700.392 0L690 18Z" fill="white"/>
<path d="M670 18L659.608 0L680.392 0L670 18Z" fill="white"/>
<path d="M650 18L639.608 0L660.392 0L650 18Z" fill="white"/>
<path d="M630 18L619.608 0L640.392 0L630 18Z" fill="white"/>
<path d="M610 18L599.608 0L620.392 0L610 18Z" fill="white"/>
<path d="M590 18L579.608 0L600.392 0L590 18Z" fill="white"/>
<path d="M570 18L559.608 0L580.392 0L570 18Z" fill="white"/>
<path d="M550 18L539.608 0L560.392 0L550 18Z" fill="white"/>
<path d="M530 18L519.608 0L540.392 0L530 18Z" fill="white"/>
<path d="M510 18L499.608 0L520.392 0L510 18Z" fill="white"/>
<path d="M490 18L479.608 0L500.392 0L490 18Z" fill="white"/>
<path d="M470 18L459.608 0L480.392 0L470 18Z" fill="white"/>
<path d="M450 18L439.608 0L460.392 0L450 18Z" fill="white"/>
<path d="M430 18L419.608 0L440.392 0L430 18Z" fill="white"/>
<path d="M410 18L399.608 0L420.392 0L410 18Z" fill="white"/>
<path d="M390 18L379.608 0L400.392 0L390 18Z" fill="white"/>
<path d="M370 18L359.608 0L380.392 0L370 18Z" fill="white"/>
<path d="M350 18L339.608 0L360.392 0L350 18Z" fill="white"/>
<path d="M330 18L319.608 0L340.392 0L330 18Z" fill="white"/>
<path d="M310 18L299.608 0L320.392 0L310 18Z" fill="white"/>
<path d="M290 18L279.608 0L300.392 0L290 18Z" fill="white"/>
<path d="M270 18L259.608 0L280.392 0L270 18Z" fill="white"/>
<path d="M250 18L239.608 0L260.392 0L250 18Z" fill="white"/>
<path d="M230 18L219.608 0L240.392 0L230 18Z" fill="white"/>
<path d="M210 18L199.608 0L220.392 0L210 18Z" fill="white"/>
<path d="M190 18L179.608 0L200.392 0L190 18Z" fill="white"/>
<path d="M170 18L159.608 0L180.392 0L170 18Z" fill="white"/>
<path d="M150 18L139.608 0L160.392 0L150 18Z" fill="white"/>
<path d="M130 18L119.608 0L140.392 0L130 18Z" fill="white"/>
<path d="M110 18L99.6077 0L120.392 0L110 18Z" fill="white"/>
<path d="M90 18L79.6077 0L100.392 0L90 18Z" fill="white"/>
<path d="M70 18L59.6077 0L80.3923 0L70 18Z" fill="white"/>
<path d="M50 18L39.6077 0L60.3923 0L50 18Z" fill="white"/>
<path d="M30 18L19.6077 0L40.3923 0L30 18Z" fill="white"/>
<path d="M10 18L-0.392303 0L20.3923 0L10 18Z" fill="white"/>
</g>
<defs>
<clipPath id="clip0">
<rect width="1920" height="18" fill="white" transform="translate(1920 18) rotate(-180)"/>
</clipPath>
</defs>
</svg>
