<svg width="1920" height="18" viewBox="0 0 1920 18" fill="none" xmlns="http://www.w3.org/2000/svg">
<g clip-path="url(#clip0)">
<path d="M10 0L20.3923 18H-0.392304L10 0Z" fill="white"/>
<path d="M30 0L40.3923 18H19.6077L30 0Z" fill="white"/>
<path d="M50 0L60.3923 18H39.6077L50 0Z" fill="white"/>
<path d="M70 0L80.3923 18H59.6077L70 0Z" fill="white"/>
<path d="M90 0L100.392 18H79.6077L90 0Z" fill="white"/>
<path d="M110 0L120.392 18H99.6077L110 0Z" fill="white"/>
<path d="M130 0L140.392 18H119.608L130 0Z" fill="white"/>
<path d="M150 0L160.392 18H139.608L150 0Z" fill="white"/>
<path d="M170 0L180.392 18H159.608L170 0Z" fill="white"/>
<path d="M190 0L200.392 18H179.608L190 0Z" fill="white"/>
<path d="M210 0L220.392 18H199.608L210 0Z" fill="white"/>
<path d="M230 0L240.392 18H219.608L230 0Z" fill="white"/>
<path d="M250 0L260.392 18H239.608L250 0Z" fill="white"/>
<path d="M270 0L280.392 18H259.608L270 0Z" fill="white"/>
<path d="M290 0L300.392 18H279.608L290 0Z" fill="white"/>
<path d="M310 0L320.392 18H299.608L310 0Z" fill="white"/>
<path d="M330 0L340.392 18H319.608L330 0Z" fill="white"/>
<path d="M350 0L360.392 18H339.608L350 0Z" fill="white"/>
<path d="M370 0L380.392 18H359.608L370 0Z" fill="white"/>
<path d="M390 0L400.392 18H379.608L390 0Z" fill="white"/>
<path d="M410 0L420.392 18H399.608L410 0Z" fill="white"/>
<path d="M430 0L440.392 18H419.608L430 0Z" fill="white"/>
<path d="M450 0L460.392 18H439.608L450 0Z" fill="white"/>
<path d="M470 0L480.392 18H459.608L470 0Z" fill="white"/>
<path d="M490 0L500.392 18H479.608L490 0Z" fill="white"/>
<path d="M510 0L520.392 18H499.608L510 0Z" fill="white"/>
<path d="M530 0L540.392 18H519.608L530 0Z" fill="white"/>
<path d="M550 0L560.392 18H539.608L550 0Z" fill="white"/>
<path d="M570 0L580.392 18H559.608L570 0Z" fill="white"/>
<path d="M590 0L600.392 18H579.608L590 0Z" fill="white"/>
<path d="M610 0L620.392 18H599.608L610 0Z" fill="white"/>
<path d="M630 0L640.392 18H619.608L630 0Z" fill="white"/>
<path d="M650 0L660.392 18H639.608L650 0Z" fill="white"/>
<path d="M670 0L680.392 18H659.608L670 0Z" fill="white"/>
<path d="M690 0L700.392 18H679.608L690 0Z" fill="white"/>
<path d="M710 0L720.392 18H699.608L710 0Z" fill="white"/>
<path d="M730 0L740.392 18H719.608L730 0Z" fill="white"/>
<path d="M750 0L760.392 18H739.608L750 0Z" fill="white"/>
<path d="M770 0L780.392 18H759.608L770 0Z" fill="white"/>
<path d="M790 0L800.392 18H779.608L790 0Z" fill="white"/>
<path d="M810 0L820.392 18H799.608L810 0Z" fill="white"/>
<path d="M830 0L840.392 18H819.608L830 0Z" fill="white"/>
<path d="M850 0L860.392 18H839.608L850 0Z" fill="white"/>
<path d="M870 0L880.392 18H859.608L870 0Z" fill="white"/>
<path d="M890 0L900.392 18H879.608L890 0Z" fill="white"/>
<path d="M910 0L920.392 18H899.608L910 0Z" fill="white"/>
<path d="M930 0L940.392 18H919.608L930 0Z" fill="white"/>
<path d="M950 0L960.392 18H939.608L950 0Z" fill="white"/>
<path d="M970 0L980.392 18H959.608L970 0Z" fill="white"/>
<path d="M990 0L1000.39 18H979.608L990 0Z" fill="white"/>
<path d="M1010 0L1020.39 18H999.608L1010 0Z" fill="white"/>
<path d="M1030 0L1040.39 18H1019.61L1030 0Z" fill="white"/>
<path d="M1050 0L1060.39 18H1039.61L1050 0Z" fill="white"/>
<path d="M1070 0L1080.39 18H1059.61L1070 0Z" fill="white"/>
<path d="M1090 0L1100.39 18H1079.61L1090 0Z" fill="white"/>
<path d="M1110 0L1120.39 18H1099.61L1110 0Z" fill="white"/>
<path d="M1130 0L1140.39 18H1119.61L1130 0Z" fill="white"/>
<path d="M1150 0L1160.39 18H1139.61L1150 0Z" fill="white"/>
<path d="M1170 0L1180.39 18H1159.61L1170 0Z" fill="white"/>
<path d="M1190 0L1200.39 18H1179.61L1190 0Z" fill="white"/>
<path d="M1210 0L1220.39 18H1199.61L1210 0Z" fill="white"/>
<path d="M1230 0L1240.39 18H1219.61L1230 0Z" fill="white"/>
<path d="M1250 0L1260.39 18H1239.61L1250 0Z" fill="white"/>
<path d="M1270 0L1280.39 18H1259.61L1270 0Z" fill="white"/>
<path d="M1290 0L1300.39 18H1279.61L1290 0Z" fill="white"/>
<path d="M1310 0L1320.39 18H1299.61L1310 0Z" fill="white"/>
<path d="M1330 0L1340.39 18H1319.61L1330 0Z" fill="white"/>
<path d="M1350 0L1360.39 18H1339.61L1350 0Z" fill="white"/>
<path d="M1370 0L1380.39 18H1359.61L1370 0Z" fill="white"/>
<path d="M1390 0L1400.39 18H1379.61L1390 0Z" fill="white"/>
<path d="M1410 0L1420.39 18H1399.61L1410 0Z" fill="white"/>
<path d="M1430 0L1440.39 18H1419.61L1430 0Z" fill="white"/>
<path d="M1450 0L1460.39 18H1439.61L1450 0Z" fill="white"/>
<path d="M1470 0L1480.39 18H1459.61L1470 0Z" fill="white"/>
<path d="M1490 0L1500.39 18H1479.61L1490 0Z" fill="white"/>
<path d="M1510 0L1520.39 18H1499.61L1510 0Z" fill="white"/>
<path d="M1530 0L1540.39 18H1519.61L1530 0Z" fill="white"/>
<path d="M1550 0L1560.39 18H1539.61L1550 0Z" fill="white"/>
<path d="M1570 0L1580.39 18H1559.61L1570 0Z" fill="white"/>
<path d="M1590 0L1600.39 18H1579.61L1590 0Z" fill="white"/>
<path d="M1610 0L1620.39 18H1599.61L1610 0Z" fill="white"/>
<path d="M1630 0L1640.39 18H1619.61L1630 0Z" fill="white"/>
<path d="M1650 0L1660.39 18H1639.61L1650 0Z" fill="white"/>
<path d="M1670 0L1680.39 18H1659.61L1670 0Z" fill="white"/>
<path d="M1690 0L1700.39 18H1679.61L1690 0Z" fill="white"/>
<path d="M1710 0L1720.39 18H1699.61L1710 0Z" fill="white"/>
<path d="M1730 0L1740.39 18H1719.61L1730 0Z" fill="white"/>
<path d="M1750 0L1760.39 18H1739.61L1750 0Z" fill="white"/>
<path d="M1770 0L1780.39 18H1759.61L1770 0Z" fill="white"/>
<path d="M1790 0L1800.39 18H1779.61L1790 0Z" fill="white"/>
<path d="M1810 0L1820.39 18H1799.61L1810 0Z" fill="white"/>
<path d="M1830 0L1840.39 18H1819.61L1830 0Z" fill="white"/>
<path d="M1850 0L1860.39 18H1839.61L1850 0Z" fill="white"/>
<path d="M1870 0L1880.39 18H1859.61L1870 0Z" fill="white"/>
<path d="M1890 0L1900.39 18H1879.61L1890 0Z" fill="white"/>
<path d="M1910 0L1920.39 18H1899.61L1910 0Z" fill="white"/>
</g>
<defs>
<clipPath id="clip0">
<rect width="1920" height="18" fill="white"/>
</clipPath>
</defs>
</svg>
